<svg width="800" height="800" viewBox="0 0 800 800" fill="none" xmlns="http://www.w3.org/2000/svg">
<path d="M400.001 119.997C193.334 119.997 26.668 95.9969 26.668 66.6641V733.331C26.668 762.664 193.335 786.664 400.001 786.664C606.666 786.664 773.334 762.664 773.334 733.331V66.6641C773.334 95.9969 606.668 119.997 400.001 119.997Z" fill="#B3BCD7"/>
<path d="M773.334 66.6703C773.334 96.0031 606.668 120.003 400.001 120.003C193.334 120.003 26.668 96.0031 26.668 66.6703C26.668 37.3375 193.334 13.3359 400.001 13.3359C606.668 13.3359 773.334 37.3359 773.334 66.6703Z" fill="#F5F5F5"/>
<path d="M773.334 733.333C773.334 762.666 606.666 786.666 400.001 786.666C193.335 786.666 26.668 762.666 26.668 733.333C26.668 704 193.334 680 400.001 680C606.668 680 773.334 704 773.334 733.333Z" fill="#434C6D"/>
<path d="M399.999 133.333C299.999 133.333 205.332 128 134.666 117.333C27.9992 102.667 13.332 82.6672 13.332 66.6672C13.332 50.6672 27.9992 30.6672 134.665 16C205.332 5.33281 299.999 0 399.999 0C499.999 0 594.666 5.33281 665.332 16C771.999 30.6672 786.665 50.6672 786.665 66.6672C786.665 82.6672 771.998 102.667 665.332 117.334C594.666 128 499.999 133.333 399.999 133.333ZM41.332 66.6672C62.6664 84 195.999 106.667 399.999 106.667C603.999 106.667 737.332 84 758.666 66.6672C737.334 49.3344 603.999 26.6672 399.999 26.6672C195.999 26.6672 62.6664 49.3328 41.332 66.6672Z" fill="black"/>
<path d="M26.6648 746.664C18.6648 746.664 13.332 741.331 13.332 733.331C13.332 715.998 33.332 706.664 39.9992 703.998C46.6664 701.331 54.6664 703.998 57.332 710.666C59.9992 717.333 57.332 725.333 50.6648 727.998C43.9977 730.664 41.332 733.331 39.9977 734.666C38.6648 741.33 33.3305 746.664 26.6648 746.664ZM758.665 731.997C757.332 731.997 754.665 731.997 753.332 730.664C747.999 727.997 739.999 725.331 730.665 722.664C723.998 719.997 719.998 713.331 721.332 706.664C723.999 699.997 730.665 695.997 737.332 697.331C747.999 699.998 757.332 703.998 763.999 707.998C770.666 710.666 773.332 718.666 770.666 725.331C767.998 729.33 763.998 731.997 758.665 731.997ZM97.3305 715.997C90.6633 715.997 85.3305 711.997 83.9977 705.33C82.6648 698.663 86.6648 690.663 94.6648 689.33C102.665 687.997 111.998 686.663 121.332 683.997C127.999 682.664 135.999 687.997 135.999 694.664C137.332 701.331 131.999 709.331 125.332 709.331C115.999 710.664 107.999 711.998 99.9992 713.331C98.6648 715.997 97.3305 715.997 97.3305 715.997ZM681.33 711.997C679.998 711.997 679.998 711.997 678.663 711.997C670.663 710.664 661.33 709.33 651.996 707.997C645.329 706.664 639.996 699.997 639.996 693.33C641.329 686.663 647.996 681.33 654.663 681.33C663.996 682.663 673.33 683.997 681.33 685.33C687.998 686.663 693.33 693.33 691.998 699.997C693.33 706.664 687.998 711.997 681.33 711.997ZM175.998 703.997C169.33 703.997 163.998 698.664 162.665 691.997C161.332 685.33 166.665 678.664 174.665 677.33C182.665 675.997 191.998 675.997 201.332 674.663C209.332 673.33 214.665 679.995 215.999 686.663C215.999 693.33 210.666 699.995 203.999 701.33C194.666 702.663 186.666 702.663 177.332 703.997H175.998ZM602.665 701.33C601.33 701.33 601.33 701.33 602.665 701.33C593.332 699.997 583.998 699.997 574.665 698.663C567.998 698.663 561.332 691.995 562.665 683.995C562.665 677.328 569.332 670.663 577.332 671.995C586.665 673.328 595.999 673.328 603.999 674.663C611.999 675.995 617.332 681.33 615.999 689.33C614.665 695.997 609.33 701.33 602.665 701.33ZM255.998 697.33C249.33 697.33 242.665 691.997 242.665 685.33C242.665 677.33 247.998 671.997 254.665 670.663C263.998 670.663 271.998 669.33 281.332 669.33C287.999 669.33 294.665 674.663 294.665 682.663C294.665 690.663 289.332 695.995 281.332 695.995C273.33 695.997 265.33 697.33 255.998 697.33ZM522.665 695.997C513.332 695.997 503.998 694.664 495.998 694.664C487.998 694.664 482.665 687.997 482.665 681.331C482.665 674.666 489.332 667.998 495.998 667.998C505.33 667.998 514.665 669.331 522.665 669.331C530.665 669.331 535.998 675.998 534.665 682.664C534.665 690.664 529.33 695.997 522.665 695.997ZM335.998 694.664C329.33 694.664 322.665 689.331 322.665 681.331C322.665 673.331 327.998 667.998 335.998 667.998C345.33 667.998 353.33 667.998 362.665 667.998C369.332 667.998 375.998 673.331 375.998 681.331C375.998 689.331 370.665 694.664 362.665 694.664C353.33 693.33 345.33 693.33 335.998 694.664ZM442.665 693.33C433.332 693.33 425.332 693.33 415.998 693.33C407.998 693.33 402.665 686.663 402.665 679.997C402.665 673.331 409.332 666.664 415.998 666.664C425.33 666.664 433.33 666.664 442.665 666.664C450.665 666.664 455.998 673.331 455.998 679.997C455.998 687.997 449.33 693.33 442.665 693.33Z" fill="black"/>
<path d="M773.33 746.669C765.33 746.669 759.998 741.336 759.998 733.336V96.0016C742.665 104.002 713.33 110.669 665.33 117.334C594.665 128.002 499.998 133.334 399.998 133.334C299.998 133.334 205.33 128.002 134.665 117.334C86.6648 110.669 57.3305 102.669 39.9977 96.0016V733.334C39.9977 741.334 34.6648 746.667 26.6648 746.667C18.6648 746.667 13.332 741.334 13.332 733.334V66.6688C13.332 58.6688 18.6648 53.3359 26.6648 53.3359C33.332 53.3359 38.6648 58.6688 39.9977 65.3359C54.6648 82.6688 189.33 106.669 399.998 106.669C610.665 106.669 745.33 82.6688 759.998 65.3359C761.33 58.6688 766.665 53.3359 773.33 53.3359C781.33 53.3359 786.663 58.6688 786.663 66.6688V733.336C786.665 741.334 781.33 746.669 773.33 746.669Z" fill="black"/>
<path d="M399.998 800C299.998 800 205.33 794.667 134.665 784C27.9977 769.333 13.332 749.333 13.332 733.333C13.332 725.333 18.6648 720 26.6648 720C33.332 720 38.6648 725.333 39.9977 732C54.6648 749.333 189.33 773.333 399.998 773.333C610.665 773.333 745.33 749.333 759.998 732C761.33 725.333 766.665 720 773.33 720C781.33 720 786.663 725.333 786.663 733.333C786.663 749.333 771.996 769.333 665.33 784C594.665 794.667 499.998 800 399.998 800Z" fill="black"/>
</svg>
